# xmcd
#
# Track frame offsets:
#	150
#	11393
#	27579
#	40691
#	54045
#	73197
#	84266
#	101640
#	114259
#	124716
#	143301
#	158520
#
# Disc length: 2420 seconds
#
# Revision: 0
# Processed by: cddbd v1.4PL0 Copyright (c) Steve Scherf et al.
# Submitted via: audiograbber 1.80
#
DISCID=8309720c
DTITLE=John Lee Hooker - B.B King - Santana - Eric Clapton - Boom Boom
DYEAR=1900
DGENRE=
TTITLE0=John Lee Hooker - Boom Boom
TTITLE1=B.B King  - It´s My Own Fault Baby
TTITLE2=Elmore James  - Standing At The Crossroads
TTITLE3=Muddy Waters - Baby Please Don´t Go
TTITLE4=John Mayall - John Lee Boogie
TTITLE5=Canned - Heat Can´t Hold On ( Elmore)
TTITLE6=Mike Bloomfield - Jockey Blues
TTITLE7=Eric Clapton - Freight Loader
TTITLE8=Johnny Winter - Out Of Sight
TTITLE9=Santana - With A Little Help From My Friends
TTITLE10=Muddy Waters - (I´m Your) Hoochie Coochie Man (Dixon)
TTITLE11=Browie Mcghee and Sonny Terry - Blues For The Lowlands (Terry)
EXTD=
EXTT0=
EXTT1=
EXTT2=
EXTT3=
EXTT4=
EXTT5=
EXTT6=
EXTT7=
EXTT8=
EXTT9=
EXTT10=
EXTT11=
PLAYORDER=
